<svg xmlns="http://www.w3.org/2000/svg" viewBox="0 0 1006 417" width="1006" height="417"><defs><linearGradient id="5379726539095572315" x1="191.1666056464636" y1="272.17228252778295" x2="-187.98778992908052" y2="-176.27093656420766" gradientTransform="matrix(0.001027606,0,0,0.005155349,0.497713571,-0.021677651)"><stop stop-color="#7cbbfb" /><stop offset="1" stop-color="#7dc9fe" /></linearGradient></defs><g transform="matrix(1,0,0,1,-0.5,-0.5)">
<g>
	<g transform="matrix(1,0,0,1,503.5,209)">
		<g>
			<path d="M-176.30499267578125,-125.2040023803711 C-167.70999145507813,-121.38099670410156 -163.885009765625,-111.27999877929688 -167.78799438476563,-102.71900177001953 C-171.69100952148438,-94.15799713134766 -181.8280029296875,-90.4229965209961 -190.35101318359375,-94.40299987792969 C-198.7650146484375,-98.33300018310547 -202.43798828125,-108.30999755859375 -198.58401489257813,-116.76000213623047 C-194.73001098632813,-125.20999908447266 -184.78799438476563,-128.97899627685547 -176.30398559570313,-125.2040023803711M-150.87799072265625,-161.67599868774414 C-143.92401123046875,-158.34099960327148 -140.92800903320313,-150.04600143432617 -144.14801025390625,-143.03600311279297 C-147.36599731445313,-136.0260009765625 -155.6090087890625,-132.89099884033203 -162.67098999023438,-135.98999786376953 C-167.34521484375,-138.0421600341797 -170.54910278320313,-142.4559555053711 -171.052001953125,-147.5359992980957 C-171.5537109375,-152.61674880981445 -169.277587890625,-157.57339477539063 -165.09698486328125,-160.50400161743164 C-160.91680908203125,-163.43489837646484 -155.48065185546875,-163.88293838500977 -150.87701416015625,-161.67599868774414M-140.15701293945313,-94.05899810791016 C-133.00698852539063,-91.55699920654297 -129.23699951171875,-83.73200225830078 -131.739013671875,-76.57899475097656 C-134.239013671875,-69.42599487304688 -142.06298828125,-65.65299987792969 -149.21600341796875,-68.14900207519531 C-156.37200927734375,-70.64700317382813 -160.14599609375,-78.47599792480469 -157.64401245117188,-85.63200378417969 C-155.14199829101563,-92.78800201416016 -147.31100463867188,-96.56199645996094 -140.15701293945313,-94.05899810791016M-112.73098754882813,-68.12699890136719 C-109.95330810546875,-67.3092041015625 -107.83926391601563,-65.04685974121094 -107.21136474609375,-62.22019958496094 C-106.58343505859375,-59.39353942871094 -107.54080200195313,-56.44892883300781 -109.71099853515625,-54.53199768066406 C-112.39813232421875,-52.15174865722656 -116.34625244140625,-51.86546325683594 -119.34866333007813,-53.833160400390625 C-122.35104370117188,-55.800872802734375 -123.66415405273438,-59.53523254394531 -122.55398559570313,-62.949005126953125 C-121.22293090820313,-67.05094909667969 -116.86737060546875,-69.34687805175781 -112.73098754882813,-68.12699890136719" fill="#c65e72"/>
		</g>
		<g>
			<g>
				<path d="M28.429014205932617,129.54999542236328 C-46.49498748779297,135.5619888305664 -90.89398956298828,123.68999481201172 -157.59898376464844,92.40999603271484 C-236.37498474121094,55.467994689941406 -321.7969970703125,15.269996643066406 -409.958984375,41.446998596191406 C-433.0509948730469,47.87200164794922 -465.3059997558594,58.500999450683594 -484.3429870605469,73.7979965209961 C-435.7599792480469,71.3499984741211 -396.7769775390625,65.14800262451172 -347.35198974609375,73.80699920654297 C-226.53298950195313,94.9749984741211 -132.3359832763672,186.95999908447266 -8.614985942840576,196.99600982666016 C10.065013885498047,198.51099395751953 29.108013153076172,198.61100006103516 47.59401321411133,197.0569839477539 C104.62101745605469,192.26200103759766 161.7860107421875,175.89398956298828 210.62001037597656,145.61701202392578 C234.093017578125,131.24698638916016 254.1330108642578,114.6290054321289 275.843017578125,98.1030044555664 C323.4630126953125,61.840003967285156 374.03302001953125,29.09699249267578 435.53302001953125,25.20899200439453 C454.28302001953125,24.02300262451172 470.2430114746094,25.16699981689453 488.7929992675781,26.58899688720703 C396.1830139160156,-19.66100311279297 318.9730224609375,12.536994934082031 236.8330078125,61.74199676513672 C146.9560089111328,115.58300018310547 33.962013244628906,166.17700958251953 -72.00698852539063,137.3219985961914 C-74.47698974609375,136.64899444580078 -79.43098449707031,135.71399688720703 -81.35098266601563,134.32898712158203 C-78.69998931884766,134.1550064086914 -58.26998519897461,136.89398956298828 -52.76298522949219,137.1659927368164 C-24.973407745361328,138.69489288330078 2.897540807723999,136.65662384033203 30.16901397705078,131.10099029541016 C33.885013580322266,130.72498321533203 41.71701431274414,129.20499420166016 45.16201400756836,128.04900360107422 C41.99501419067383,127.63199615478516 31.784015655517578,128.85599517822266 28.429014205932617,129.54999542236328" fill="url('#5379726539095572315')"/>
			</g>
		</g>
		<g>
			<path d="M-313.82000732421875,-32.593994140625 C-304.3350067138672,-33.514007568359375 -287.98699951171875,-32.43400573730469 -278.56199645996094,-31.652999877929688 C-170.56600952148438,-22.707000732421875 -100.26901245117188,66.24899291992188 -1.03900146484375,98.38800048828125 C30.6300048828125,108.64498901367188 52.94598388671875,110.9530029296875 85.75201416015625,111.02700805664063 C65.873779296875,116.02481079101563 45.54840087890625,119.0362548828125 25.07501220703125,120.01699829101563 C-28.375,122.9630126953125 -64.34799194335938,115.114990234375 -112.60800170898438,91.87298583984375 C-146.20498657226563,75.4010009765625 -175.76800537109375,59.822998046875 -210.49301147460938,45.65699768066406 C-325.3699951171875,-1.207000732421875 -392.94200134277344,9.001007080078125 -503,54.03900146484375 C-448.4179992675781,3.055999755859375 -388.78299713134766,-27.97900390625 -313.82000732421875,-32.593994140625" fill="#3d59a1"/>
		</g>
		<g>
			<path d="M-54.34698486328125,42.852996826171875 C-7.92498779296875,67.82400512695313 61.16802978515625,74.11199951171875 111.61297607421875,57.907989501953125 C139.71099853515625,48.88299560546875 166.67401123046875,35.45599365234375 192.1190185546875,20.378997802734375 C271.28302001953125,-30.535995483398438 367.4730224609375,-65.38699340820313 457.66302490234375,-19.416000366210938 C476.98297119140625,-9.567001342773438 490.50299072265625,2.17999267578125 503.9530029296875,19.457000732421875 C494.093017578125,13.011001586914063 486.62298583984375,8.2449951171875 476.01300048828125,3.2530059814453125 C437.66302490234375,-14.792999267578125 391.4530029296875,-14.656997680664063 350.6929931640625,-6.0290069580078125 C246.302978515625,16.06500244140625 172.06097412109375,108.60598754882813 57.93499755859375,94.02398681640625 C49.12200927734375,92.89801025390625 25.4949951171875,89.56900024414063 17.90997314453125,85.7869873046875 C16.7769775390625,84.27801513671875 -1.720001220703125,77.03399658203125 -4.77099609375,75.55398559570313 C-23.57000732421875,66.43701171875 -45.175994873046875,54.40301513671875 -60.94000244140625,40.83500671386719 C-58.152008056640625,41.406005859375 -56.97198486328125,41.55999755859375 -54.34698486328125,42.852996826171875" fill="#7dcfff"/>
		</g>
		<g>
			<path d="M-29.912994384765625,206.53500366210938 C-71.625,199.2030029296875 -105.88900756835938,187.25 -143.61700439453125,168.20098876953125 C-181.28298950195313,149.18499755859375 -217.37600708007813,127.59698486328125 -256.9129943847656,112.43399047851563 C-267.5740051269531,108.34600830078125 -283.1009979248047,102.41299438476563 -294.15899658203125,100.02301025390625 C-338.53900146484375,85.17898559570313 -400.0749969482422,83.62600708007813 -442.9710006713867,104.93701171875 C-447.9620780944824,107.39358520507813 -452.7416648864746,110.25833129882813 -457.26100158691406,113.50201416015625 C-401.3710021972656,101.05398559570313 -354.7740020751953,109.42498779296875 -301.09800720214844,124.18301391601563 C-262.3159942626953,138.20901489257813 -231.75399780273438,152.88800048828125 -194.7139892578125,170.08200073242188 C-148.91400146484375,191.34100341796875 -83.53500366210938,207.35198974609375 -32.738006591796875,208.67098999023438 C-26.050994873046875,208.98599243164063 -18.735992431640625,209.46499633789063 -12.097991943359375,209.41598510742188 C-12.097991943359375,209.41598510742188 -9.545013427734375,209.46798706054688 -9.545013427734375,209.46798706054688 C-9.207000732421875,208.67098999023438 -9.9320068359375,209.08401489257813 -10.72900390625,208.67098999023438 C-15.819000244140625,208.47601318359375 -24.80999755859375,207.12600708007813 -29.912994384765625,206.53500366210938M394.02301025390625,49.87200927734375 C411.61297607421875,47.730010986328125 429.06298828125,51.5830078125 443.3330078125,62.248992919921875 C427.4329833984375,62.11700439453125 413.13299560546875,61.57598876953125 397.52301025390625,65.23300170898438 C350.61297607421875,76.2239990234375 312.56298828125,108.7449951171875 273.1729736328125,134.07901000976563 C252.8233642578125,147.21304321289063 231.49493408203125,158.76467895507813 209.3759765625,168.63198852539063 C201.66900634765625,171.71499633789063 182.22998046875,179.385009765625 174.33697509765625,181.00799560546875 C176.49200439453125,179.2550048828125 191.99700927734375,173.06900024414063 196.64398193359375,170.72799682617188 C206.9656982421875,165.48635864257813 216.97210693359375,159.64572143554688 226.61199951171875,153.23599243164063 C279.2130126953125,118.77200317382813 330.822998046875,58.2239990234375 394.02301025390625,49.87200927734375M463.843017578125,46.8699951171875 C466.82806396484375,45.84478759765625 470.134765625,46.53297424316406 472.4630126953125,48.66400146484375 C474.792724609375,50.794952392578125 475.77099609375,54.029052734375 475.01300048828125,57.093994140625 C474.260986328125,60.161041259765625 471.88848876953125,62.569244384765625 468.8330078125,63.36700439453125 C464.3472900390625,64.5443115234375 459.73406982421875,61.961517333984375 458.39300537109375,57.522003173828125 C457.052978515625,53.0830078125 459.4630126953125,48.376007080078125 463.843017578125,46.8699951171875" fill="#7aa2f7"/>
		</g>
		<g>
			<path d="M-14.649993896484375,-208.5 C-14.649993896484375,-208.5 -14.5989990234375,-172.66600036621094 -14.5989990234375,-172.66600036621094 C-40.446014404296875,-172.88600158691406 -72.75900268554688,-173.9729995727539 -98.32400512695313,-173.0099983215332 C-96.04400634765625,-167.10499954223633 -93.25,-159.67599868774414 -89.9580078125,-154.27199935913086 C-50.85198974609375,-158.8120002746582 -54.32598876953125,-153.8370018005371 -45.71600341796875,-119.56400299072266 C-73.80099487304688,-119.2239990234375 -102.85000610351563,-119.77899932861328 -131.05899047851563,-119.83399963378906 C-128.58200073242188,-114.98600006103516 -124.010986328125,-106.69400024414063 -122.00900268554688,-101.96900177001953 C-122.00900268554688,-101.96900177001953 82.7490234375,-101.08799743652344 82.7490234375,-101.08799743652344 C91.53399658203125,-101.03399658203125 124.96697998046875,-99.16300201416016 130.2490234375,-104 C131.4140625,-105.0583267211914 132.05718994140625,-106.57376861572266 132.00897216796875,-108.14700317382813 C131.81298828125,-115.66699981689453 109.41900634765625,-133.33999633789063 102.0999755859375,-132.81400299072266 C92.41497802734375,-124.7300033569336 91.52398681640625,-125.03600311279297 82.69000244140625,-119.00599670410156 C82.69000244140625,-119.00599670410156 30.760986328125,-119.0459976196289 30.760986328125,-119.0459976196289 C37.385986328125,-124.55000305175781 61.885986328125,-139.13600158691406 57.88299560546875,-146.68000030517578 C53.4429931640625,-149.93999862670898 46.32501220703125,-151.55199813842773 40.66900634765625,-154.6150016784668 C50.08599853515625,-154.61399841308594 89.1719970703125,-152.22100067138672 94.76702880859375,-157.71900177001953 C96.04901123046875,-158.97900009155273 96.4580078125,-160.53300094604492 96.20697021484375,-162.28300094604492 C95.26898193359375,-168.82300186157227 83.594970703125,-177.20899963378906 78.1190185546875,-180.64500045776367 C75.14300537109375,-182.51300048828125 70.64898681640625,-184.98299980163574 67.04998779296875,-184.2469997406006 C61.34197998046875,-183.07900047302246 56.052978515625,-176.10300064086914 51.96697998046875,-172.2150001525879 C51.96697998046875,-172.2150001525879 12.094970703125,-172.38199996948242 12.094970703125,-172.38199996948242 C12.11700439453125,-176.85799980163574 11.926025390625,-184.11199951171875 12.3079833984375,-188.36700057983398 C16.60601806640625,-191.21100044250488 26.260009765625,-195.371000289917 22.96002197265625,-200.99700021743774 C17.36798095703125,-205.0090000629425 -7.147003173828125,-208.19200000166893 -14.649993896484375,-208.5M-43.160003662109375,-154.4099998474121 C-21.32000732421875,-154.66899871826172 6.040008544921875,-155.11199951171875 27.59002685546875,-154.10800170898438 C24.11700439453125,-145.73199844360352 20.2960205078125,-133.9749984741211 16.97100830078125,-125.11799621582031 C16.97100830078125,-125.11799621582031 14.10302734375,-118.59400177001953 14.10302734375,-118.59400177001953 C14.10302734375,-118.59400177001953 -26.579010009765625,-118.70600128173828 -26.579010009765625,-118.70600128173828 C-25.698974609375,-119.90200805664063 -24.865997314453125,-121.13194274902344 -24.082000732421875,-122.39299774169922 C-13.608001708984375,-139.41300201416016 -30.75201416015625,-147.73500061035156 -43.15899658203125,-154.4099998474121M56.51202392578125,-94.64399719238281 C53.302001953125,-89.11199951171875 51.9630126953125,-86.94000244140625 46.9219970703125,-83.04299926757813 C16.31500244140625,-83.16699981689453 -16.282989501953125,-83.85299682617188 -46.73699951171875,-83.2030029296875 C-54.3070068359375,-95.09500122070313 -62.433990478515625,-91.43199920654297 -74.97900390625,-91.49700164794922 C-73.23300170898438,-49.41700744628906 -74.9949951171875,-14.92999267578125 -75.52398681640625,26.45599365234375 C-68.44000244140625,26.5570068359375 -48.95599365234375,29.207000732421875 -47.292999267578125,20.296005249023438 C-46.631988525390625,17.6929931640625 -46.858001708984375,16.380996704101563 -45.06500244140625,15.296005249023438 C-16.49798583984375,14.212997436523438 20.29498291015625,15.166000366210938 49.45001220703125,15.348007202148438 C49.45001220703125,15.348007202148438 49.4749755859375,26.531005859375 49.4749755859375,26.531005859375 C56.89501953125,26.5989990234375 69.43499755859375,27.735992431640625 75.5050048828125,24.238998413085938 C79.80499267578125,18.466995239257813 77.739990234375,-50.96099853515625 77.718017578125,-63.305999755859375 C81.8499755859375,-66.54100036621094 88.08099365234375,-73.61000061035156 91.18798828125,-77.86000061035156 C85.52398681640625,-80.51899719238281 60.218994140625,-93.69599914550781 56.51202392578125,-94.64399719238281M-46.407989501953125,-64.77299499511719 C-46.407989501953125,-64.77299499511719 49.40899658203125,-64.33799743652344 49.40899658203125,-64.33799743652344 C49.40899658203125,-64.33799743652344 49.26702880859375,-42.90199279785156 49.26702880859375,-42.90199279785156 C17.82098388671875,-42.45100402832031 -14.998992919921875,-43.14799499511719 -46.673004150390625,-43.08399963378906 C-46.688995361328125,-50.25199890136719 -46.506988525390625,-57.59100341796875 -46.407989501953125,-64.77299499511719M-39.993011474609375,-24.912002563476563 C-11.10198974609375,-25.503997802734375 20.50799560546875,-24.746002197265625 49.573974609375,-24.615997314453125 C49.62799072265625,-20.358001708984375 50.573974609375,-7.5290069580078125 48.7440185546875,-3.6719970703125 C48.34698486328125,-2.8350067138671875 46.73602294921875,-3.087005615234375 45.447021484375,-3.037994384765625 C45.447021484375,-3.037994384765625 -46.45098876953125,-3.4499969482421875 -46.45098876953125,-3.4499969482421875 C-46.41400146484375,-10.457992553710938 -48.040985107421875,-17.811996459960938 -45.519989013671875,-23.8800048828125 C-43.36199951171875,-25.358001708984375 -42.9429931640625,-24.871994018554688 -39.993011474609375,-24.912002563476563" fill="#bb9af7"/>
		</g>
	</g>
</g></g></svg>