<?xml version="1.0" encoding="UTF-8" standalone="no"?><!DOCTYPE svg PUBLIC "-//W3C//DTD SVG 1.1//EN" "http://www.w3.org/Graphics/SVG/1.1/DTD/svg11.dtd"><svg width="100%" height="100%" viewBox="0 0 632 632" version="1.1" xmlns="http://www.w3.org/2000/svg" xmlns:xlink="http://www.w3.org/1999/xlink" xml:space="preserve" xmlns:serif="http://www.serif.com/" style="fill-rule:evenodd;clip-rule:evenodd;stroke-linecap:round;stroke-linejoin:round;stroke-miterlimit:1.5;"><g id="Waves"><path d="M42.769,452.799c-5.518,-10.981 -10.393,-22.339 -14.577,-34.025c44.091,-6.915 95.656,-0.251 149.524,37.082c-0,0 17.163,11.966 38.897,29.017c37.349,29.304 91.942,69.884 123.16,63.519c0,-0 -53.699,32.124 -162.057,-48.426c-16.017,-11.906 -39.235,-20.265 -55.138,-27.401c-27.745,-12.449 -54.454,-18.34 -79.809,-19.766Z" style="fill:#004687;"/><path d="M284.059,498.838c-0.164,-0.08 -0.328,-0.161 -0.492,-0.241c-0,-0 0.164,0.087 0.492,0.241Z" style="fill:#00ffd2;"/><path d="M284.059,498.838c2.509,1.185 14.573,6.319 35.157,6.298c11.594,-0.012 23.369,1.224 42.681,-6.539c16.709,-6.717 37.429,-21.864 60.613,-36.919c15.662,-10.17 44.131,-23.328 62.43,-38.357c-0,0 54.252,-32.008 125.106,-24.613c-2.899,10.308 -6.327,20.395 -10.251,30.232c-35.447,1.429 -74.624,11.67 -114.855,37.533c-140.436,90.28 -157.14,53.973 -200.881,32.365Z" style="fill:#00ffd2;"/><path d="M45.54,458.177c40.984,3.191 92.857,22.368 154.108,75.384c-0,0 93.494,90.431 212.4,0c0,0 88.369,-90.098 182.529,-92.334c-13.611,30.191 -31.987,57.78 -54.166,81.806c-13.124,9.316 -26.104,20.683 -38.501,34.528c-0.711,0.795 -1.458,1.584 -2.238,2.366c-9.612,7.252 -19.664,13.95 -30.11,20.045c-18.085,8.448 -39.26,13.876 -57.514,13.876c0,0 -58.543,30.019 -132.55,25.416c-101.699,-12.103 -188.136,-74.249 -233.958,-161.087Z" style="fill:#00ffd2;"/><path d="M499.672,559.927c-7.521,7.539 -18.139,14.453 -30.11,20.045c10.446,-6.095 20.498,-12.793 30.11,-20.045Z" style="fill:#00ffd2;"/><circle cx="315.917" cy="315.917" r="305.5" style="fill:none;stroke:#2a3067;stroke-width:20.83px;"/></g><g><path id="Kanji" d="M211.048,252.424l31.295,12.091l140.114,0l10.669,-12.091l34.139,24.894l-10.668,17.069l-0,142.248c-0,0 7.823,28.45 -50.498,31.295c-0,0 4.267,-18.492 -31.295,-24.893c0,-0 -11.38,-17.07 9.957,-14.936l27.028,4.267c-0,0 10.668,0 10.668,-14.225l0,-28.449l-140.114,-0l-0,66.856c-0,0 -17.781,28.45 -31.295,0l0,-204.126Zm31.295,86.06l-0,28.45l140.114,-0l0,-28.45l-140.114,0Zm-0,-51.209l-0,29.161l140.825,-0l0,-29.161l-140.825,0Z" style="fill:#0a0047;"/><path d="M251.589,215.44c-0,-0 -12.091,-50.498 -18.492,-53.343c-6.401,-2.845 -46.942,2.845 -46.942,2.845l-9.957,-25.605l119.488,0l-0,-51.92l42.674,7.823c0,0 19.204,3.557 -7.823,20.626l-0,23.471l71.124,0l15.647,-14.936c-0,0 4.979,-7.823 16.358,0c11.38,7.824 19.915,20.626 19.915,20.626c0,0 9.957,9.957 0,17.07c-9.957,7.112 -73.258,-0 -73.258,-0l15.648,7.112c-0,0 15.647,9.958 -0,18.492c-15.648,8.535 -31.295,27.739 -31.295,27.739l68.99,-0l19.915,-13.514c0,0 2.134,-13.513 15.647,0l13.514,13.514c-0,-0 20.626,17.07 -0,24.893l-331.438,0l-11.38,-24.893l111.665,-0Zm-0,-53.343c-0,-0 51.209,18.492 23.471,53.343l68.279,-0l18.492,-53.343l-110.242,-0Z" style="fill:#0a0047;"/></g></svg>